<svg id="Capa_1" data-name="Capa 1" xmlns="http://www.w3.org/2000/svg" xmlns:xlink="http://www.w3.org/1999/xlink" viewBox="0 0 1006.04 754.53"><defs><style>.cls-1{fill:none;}.cls-2,.cls-28{fill:#fff;}.cls-2{stroke:#000;stroke-miterlimit:10;}.cls-3{font-size:30.83px;font-family:PontanoSans-Regular, Pontano Sans;}.cls-23,.cls-30,.cls-4{font-size:19.27px;}.cls-23,.cls-4{font-family:Montserrat-Light, Montserrat;font-weight:300;}.cls-5{letter-spacing:-0.06em;}.cls-6{letter-spacing:-0.03em;}.cls-7{letter-spacing:0em;}.cls-8{letter-spacing:0.02em;}.cls-9{letter-spacing:0em;}.cls-10{letter-spacing:-0.01em;}.cls-11{letter-spacing:0em;}.cls-12{letter-spacing:-0.05em;}.cls-13{letter-spacing:0em;}.cls-14{letter-spacing:0em;}.cls-15{letter-spacing:-0.01em;}.cls-16{letter-spacing:-0.01em;}.cls-17{letter-spacing:-0.01em;}.cls-18,.cls-19,.cls-20,.cls-21{font-family:Montserrat-MediumItalic, Montserrat;font-style:italic;}.cls-18,.cls-19,.cls-20,.cls-21,.cls-30{font-weight:500;}.cls-19{letter-spacing:-0.01em;}.cls-20,.cls-33{letter-spacing:0em;}.cls-21{letter-spacing:-0.01em;}.cls-22{letter-spacing:0.02em;}.cls-23,.cls-25{letter-spacing:0.01em;}.cls-24{letter-spacing:-0.01em;}.cls-26{fill:red;}.cls-27{clip-path:url(#clip-path);}.cls-29{letter-spacing:0em;}.cls-30{font-family:Montserrat-Medium, Montserrat;}.cls-31{letter-spacing:-0.01em;}.cls-32{letter-spacing:0.03em;}.cls-34{letter-spacing:-0.02em;}</style><clipPath id="clip-path"><rect class="cls-1" x="528.29" y="472.31" width="42.1" height="177.03"/></clipPath></defs><title>grafico2</title><polyline class="cls-2" points="710.44 256.3 678.07 206.2 276.53 206.2"/><text class="cls-3" transform="translate(128.64 129.27)">Mortalidad Infantil | Puchuncaví:</text><text class="cls-4" transform="translate(128.93 171.99)">El <tspan class="cls-5" x="22.87" y="0">7</tspan><tspan class="cls-6" x="32.81" y="0">4</tspan><tspan x="44.84" y="0">% de la </tspan><tspan class="cls-7" x="116.2" y="0">m</tspan><tspan x="136.72" y="0">o</tspan><tspan class="cls-8" x="148.67" y="0">r</tspan><tspan x="156.55" y="0">talid</tspan><tspan class="cls-7" x="198.51" y="0">a</tspan><tspan class="cls-9" x="209.76" y="0">d in</tspan><tspan class="cls-10" x="245.72" y="0">f</tspan><tspan class="cls-11" x="251.84" y="0">antil en </tspan><tspan class="cls-12" x="328.14" y="0">V</tspan><tspan class="cls-13" x="340.32" y="0">al</tspan><tspan class="cls-14" x="356.58" y="0">p</tspan><tspan class="cls-13" x="369.55" y="0">a</tspan><tspan class="cls-15" x="380.78" y="0">r</tspan><tspan class="cls-13" x="388.2" y="0">aíso </tspan><tspan class="cls-15" x="0" y="23.12">c</tspan><tspan x="10.52" y="23.12">o</tspan><tspan class="cls-15" x="22.47" y="23.12">r</tspan><tspan class="cls-16" x="29.88" y="23.12">r</tspan><tspan x="37.21" y="23.12">espo</tspan><tspan class="cls-7" x="82.87" y="23.12">n</tspan><tspan class="cls-9" x="95.86" y="23.12">de solo a la </tspan><tspan class="cls-17" x="205.8" y="23.12">c</tspan><tspan class="cls-9" x="216.32" y="23.12">omuna de </tspan><tspan class="cls-18" x="320.26" y="23.12">Pu</tspan><tspan class="cls-19" x="347.22" y="23.12">c</tspan><tspan class="cls-18" x="358.09" y="23.12">hu</tspan><tspan class="cls-20" x="384.25" y="23.12">n</tspan><tspan class="cls-21" x="397.43" y="23.12">c</tspan><tspan class="cls-18" x="408.28" y="23.12">avi</tspan><tspan x="437.57" y="23.12" xml:space="preserve">  </tspan></text><text class="cls-4" transform="translate(175.18 308.98)"><tspan class="cls-22">4</tspan><tspan x="12.99" y="0">,9</tspan></text><text class="cls-23" transform="translate(175.18 458.5)">6<tspan class="cls-24" x="11.79" y="0">,</tspan><tspan class="cls-11" x="15.43" y="0">6</tspan></text><text class="cls-4" transform="translate(175.18 608.02)"><tspan class="cls-25">6</tspan><tspan x="11.79" y="0">,9</tspan></text><path class="cls-26" d="M300.76,376.14l22.37-45.53a5.69,5.69,0,0,1,5.1-3.18l47.35.05a5.68,5.68,0,0,1,5.06,3.1l22.19,43.69a7.8,7.8,0,0,1-2.42,9.87h0A7.79,7.79,0,0,1,389,381.37l-15-29-3.1,29.57,7.27,62a10,10,0,0,1-9.93,11.16h0a10,10,0,0,1-9.91-8.77l-6.11-49.59-5.92,49.6a10,10,0,0,1-9.92,8.81h0A10,10,0,0,1,326.39,444l7-61.9-3.31-29.53L314.56,383a7.71,7.71,0,0,1-10.14,3.49h0A7.72,7.72,0,0,1,300.76,376.14Z"/><circle class="cls-26" cx="351.75" cy="299.24" r="20.81"/><path class="cls-26" d="M419.19,376.14l22.38-45.53a5.67,5.67,0,0,1,5.1-3.18l47.34.05a5.68,5.68,0,0,1,5.06,3.1l22.19,43.69a7.8,7.8,0,0,1-2.42,9.87h0a7.79,7.79,0,0,1-11.45-2.77l-15-29-3.1,29.57,7.27,62a10,10,0,0,1-9.93,11.16h0a10,10,0,0,1-9.91-8.77l-6.11-49.59-5.92,49.6a10,10,0,0,1-9.92,8.81h0A10,10,0,0,1,444.82,444l7-61.9-3.31-29.53L433,383a7.71,7.71,0,0,1-10.14,3.49h0A7.72,7.72,0,0,1,419.19,376.14Z"/><circle class="cls-26" cx="470.18" cy="299.24" r="20.81"/><path class="cls-26" d="M537.63,373.77,560,328.24a5.67,5.67,0,0,1,5.1-3.18l47.35.05a5.68,5.68,0,0,1,5,3.1l22.19,43.69a7.79,7.79,0,0,1-2.42,9.87h0A7.79,7.79,0,0,1,625.82,379l-15-29-3.1,29.57,7.28,62a10,10,0,0,1-9.94,11.16h0a10,10,0,0,1-9.91-8.77L589,394.33l-5.92,49.59a10,10,0,0,1-9.92,8.81h0a10,10,0,0,1-9.93-11.11l7-61.9-3.31-29.53-15.51,30.48a7.71,7.71,0,0,1-10.14,3.49h0A7.71,7.71,0,0,1,537.63,373.77Z"/><circle class="cls-26" cx="588.62" cy="296.87" r="20.81"/><path class="cls-26" d="M656.06,370.22l22.37-45.54a5.67,5.67,0,0,1,5.1-3.17l47.35.05a5.66,5.66,0,0,1,5,3.1l22.19,43.69a7.78,7.78,0,0,1-2.42,9.87h0a7.79,7.79,0,0,1-11.45-2.77l-15-29L726.16,376l7.28,62a10,10,0,0,1-9.93,11.16h0a10,10,0,0,1-9.91-8.77l-6.11-49.59-5.92,49.6a10,10,0,0,1-9.92,8.81h0a10,10,0,0,1-9.93-11.11l7-61.9-3.31-29.53-15.51,30.48a7.71,7.71,0,0,1-10.14,3.49h0A7.71,7.71,0,0,1,656.06,370.22Z"/><circle class="cls-26" cx="707.05" cy="293.32" r="20.81"/><path class="cls-26" d="M774.49,367.85l22.37-45.54a5.67,5.67,0,0,1,5.1-3.17l47.35.05a5.66,5.66,0,0,1,5.05,3.1L876.55,366a7.78,7.78,0,0,1-2.42,9.87h0a7.79,7.79,0,0,1-11.45-2.77l-15-29-3.1,29.58,7.28,62a10,10,0,0,1-9.93,11.16h0A10,10,0,0,1,832,438l-6.11-49.59L820,438a10,10,0,0,1-9.92,8.81h0a10,10,0,0,1-9.93-11.11l7-61.9-3.31-29.53-15.51,30.48a7.71,7.71,0,0,1-10.14,3.49h0A7.71,7.71,0,0,1,774.49,367.85Z"/><circle class="cls-26" cx="825.48" cy="290.95" r="20.81"/><path class="cls-26" d="M412.09,572.74l22.37-45.54a5.67,5.67,0,0,1,5.1-3.17l47.35,0a5.65,5.65,0,0,1,5,3.11l22.19,43.69a7.78,7.78,0,0,1-2.42,9.87h0A7.8,7.8,0,0,1,500.28,578l-15-29-3.1,29.57,7.28,62a10,10,0,0,1-9.93,11.16h0a10,10,0,0,1-9.92-8.77l-6.11-49.59-5.92,49.6a10,10,0,0,1-9.92,8.81h0a10,10,0,0,1-9.93-11.12l7-61.9-3.31-29.53-15.51,30.49a7.72,7.72,0,0,1-10.14,3.49h0A7.71,7.71,0,0,1,412.09,572.74Z"/><circle class="cls-26" cx="463.08" cy="495.84" r="20.81"/><path d="M530.52,570.37l22.37-45.54a5.69,5.69,0,0,1,5.1-3.17l47.35,0a5.71,5.71,0,0,1,5.06,3.11l22.18,43.69a7.78,7.78,0,0,1-2.42,9.87h0a7.8,7.8,0,0,1-11.45-2.77l-15-29-3.1,29.57,7.28,62A10,10,0,0,1,598,649.28h0a10,10,0,0,1-9.92-8.77l-6.11-49.59L576,640.52a10,10,0,0,1-9.93,8.81h0a10,10,0,0,1-9.93-11.11l7-61.9-3.31-29.53-15.5,30.48a7.72,7.72,0,0,1-10.15,3.49h0A7.72,7.72,0,0,1,530.52,570.37Z"/><circle cx="581.51" cy="493.47" r="20.81"/><path d="M649,566.82l22.37-45.54a5.68,5.68,0,0,1,5.1-3.17l47.35,0a5.67,5.67,0,0,1,5.06,3.11L751,564.94a7.79,7.79,0,0,1-2.42,9.88h0a7.8,7.8,0,0,1-11.45-2.77l-15-29-3.11,29.57,7.28,62a10,10,0,0,1-9.93,11.16h0a10,10,0,0,1-9.92-8.77l-6.11-49.59L694.44,637a10,10,0,0,1-9.93,8.81h0a10,10,0,0,1-9.93-11.12l7-61.9-3.31-29.53-15.51,30.48a7.71,7.71,0,0,1-10.14,3.49h0A7.7,7.7,0,0,1,649,566.82Z"/><circle cx="699.94" cy="489.91" r="20.81"/><path d="M767.38,564.45l22.37-45.54a5.7,5.7,0,0,1,5.1-3.17l47.35,0a5.67,5.67,0,0,1,5.06,3.11l22.19,43.69a7.8,7.8,0,0,1-2.43,9.87h0a7.8,7.8,0,0,1-11.45-2.77l-15-29-3.1,29.57,7.27,62a10,10,0,0,1-9.93,11.16h0a10,10,0,0,1-9.92-8.77L818.78,585l-5.91,49.6a10,10,0,0,1-9.93,8.81h0A10,10,0,0,1,793,632.29l7-61.9-3.31-29.53-15.51,30.49A7.72,7.72,0,0,1,771,574.84h0A7.72,7.72,0,0,1,767.38,564.45Z"/><circle cx="818.37" cy="487.55" r="20.81"/><path class="cls-26" d="M300.76,572.74l22.37-45.54a5.7,5.7,0,0,1,5.1-3.17l47.35,0a5.67,5.67,0,0,1,5.06,3.11l22.19,43.69a7.81,7.81,0,0,1-2.42,9.87h0A7.79,7.79,0,0,1,389,578l-15-29-3.1,29.57,7.27,62a10,10,0,0,1-9.93,11.16h0a10,10,0,0,1-9.91-8.77l-6.11-49.59-5.92,49.6a10,10,0,0,1-9.92,8.81h0a10,10,0,0,1-9.94-11.12l7-61.9-3.31-29.53-15.51,30.49a7.72,7.72,0,0,1-10.14,3.49h0A7.72,7.72,0,0,1,300.76,572.74Z"/><circle class="cls-26" cx="351.75" cy="495.84" r="20.81"/><g class="cls-27"><path class="cls-26" d="M530.52,570.37l22.37-45.54a5.69,5.69,0,0,1,5.1-3.17l47.35,0a5.71,5.71,0,0,1,5.06,3.11l22.18,43.69a7.78,7.78,0,0,1-2.42,9.87h0a7.8,7.8,0,0,1-11.45-2.77l-15-29-3.1,29.57,7.28,62A10,10,0,0,1,598,649.28h0a10,10,0,0,1-9.92-8.77l-6.11-49.59L576,640.52a10,10,0,0,1-9.93,8.81h0a10,10,0,0,1-9.93-11.11l7-61.9-3.31-29.53-15.5,30.48a7.72,7.72,0,0,1-10.15,3.49h0A7.72,7.72,0,0,1,530.52,570.37Z"/><circle class="cls-26" cx="581.51" cy="493.47" r="20.81"/></g><circle class="cls-26" cx="147.44" cy="303.31" r="17.34"/><circle cx="147.44" cy="452.83" r="17.34"/><path class="cls-28" d="M147.44,619.19a16.85,16.85,0,1,1,16.84-16.85A16.86,16.86,0,0,1,147.44,619.19Z"/><path d="M147.44,586a16.35,16.35,0,1,1-16.34,16.34A16.36,16.36,0,0,1,147.44,586m0-1a17.35,17.35,0,1,0,17.34,17.34A17.34,17.34,0,0,0,147.44,585Z"/><text class="cls-4" transform="translate(130.17 276.44)">Pu<tspan class="cls-17" x="26.67" y="0">c</tspan><tspan class="cls-9" x="37.19" y="0">hu</tspan><tspan class="cls-7" x="63.04" y="0">n</tspan><tspan class="cls-9" x="76.03" y="0">c</tspan><tspan class="cls-10" x="86.72" y="0">a</tspan><tspan x="97.76" y="0">ví</tspan></text><text class="cls-4" transform="translate(130.17 402.07)">Región<tspan class="cls-12" x="0" y="23.12">V</tspan><tspan x="12.18" y="23.12">al</tspan><tspan class="cls-29" x="28.44" y="23.12">p</tspan><tspan class="cls-9" x="41.41" y="23.12">a</tspan><tspan class="cls-17" x="52.64" y="23.12">r</tspan><tspan x="60.06" y="23.12">aíso</tspan></text><text class="cls-4" transform="translate(130.17 576.25)">Chile</text><text class="cls-30" transform="translate(129.15 254.1)"><tspan class="cls-31">P</tspan><tspan x="13.68" y="0">or c</tspan><tspan class="cls-32" x="50" y="0">/</tspan><tspan x="57.36" y="0">1000 n</tspan><tspan class="cls-33" x="121.35" y="0">a</tspan><tspan x="132.93" y="0">cidos vi</tspan><tspan class="cls-34" x="205.66" y="0">v</tspan><tspan x="216.14" y="0">os</tspan></text></svg>